<svg xmlns="http://www.w3.org/2000/svg" viewBox="0 0 800 550" role="img" aria-label="Makieta rozliczeń" font-family="Arial, Helvetica, sans-serif">
  <rect width="800" height="550" rx="22" fill="#eef1fa"/>
  <rect x="0.5" y="0.5" width="799" height="549" rx="22" fill="none" stroke="#e2e7f1"/>

  <text x="32" y="50" fill="#0e1b2a" font-size="22" font-weight="800">Faktura FV-2026-0001</text>
  <rect x="32" y="64" width="178" height="24" rx="12" fill="#eef3fc"/>
  <text x="48" y="80" fill="#2563eb" font-size="11.5" font-weight="700">Luna (Golden Retriever)</text>
  <text x="224" y="80" fill="#5b6675" font-size="12.5">Właściciel: Robert Lis</text>
  <rect x="392" y="64" width="166" height="24" rx="12" fill="#2563eb"/>
  <text x="475" y="80" fill="#ffffff" font-size="9.5" font-weight="800" letter-spacing="0.5" text-anchor="middle">KLIENT LOJALNOŚCIOWY</text>
  <rect x="676" y="62" width="92" height="28" rx="12" fill="#fbe3e4"/>
  <text x="722" y="80" fill="#c8202b" font-size="12" font-weight="700" text-anchor="middle">Oczekuje</text>

  <rect x="32" y="104" width="436" height="414" rx="16" fill="#ffffff" stroke="#e2e7f1"/>
  <text x="56" y="140" fill="#0e1b2a" font-size="16" font-weight="800">Szczegóły faktury</text>
  <rect x="356" y="122" width="88" height="26" rx="9" fill="#eef3fc"/>
  <text x="400" y="139" fill="#2563eb" font-size="11" font-weight="700" text-anchor="middle">FV-2026-0001</text>
  <line x1="56" y1="160" x2="444" y2="160" stroke="#e2e7f1"/>
  <g fill="#8a94a3" font-size="11" font-weight="700"><text x="56" y="184">USŁUGA</text><text x="444" y="184" text-anchor="end">CENA</text></g>

  <g>
    <text x="56" y="216" fill="#25313f" font-size="14" font-weight="700">Przegląd ogólny</text>
    <text x="56" y="236" fill="#8a94a3" font-size="12">Coroczne badanie fizykalne</text>
    <text x="444" y="222" fill="#25313f" font-size="14" font-weight="700" text-anchor="end">50,00 zł</text>
    <line x1="56" y1="256" x2="444" y2="256" stroke="#eef1fa"/>

    <text x="56" y="288" fill="#25313f" font-size="14" font-weight="700">Szczepienie przeciw wściekliźnie</text>
    <text x="56" y="308" fill="#8a94a3" font-size="12">Dawka przypominająca</text>
    <text x="444" y="294" fill="#25313f" font-size="14" font-weight="700" text-anchor="end">25,00 zł</text>
    <line x1="56" y1="328" x2="444" y2="328" stroke="#eef1fa"/>

    <text x="56" y="360" fill="#25313f" font-size="14" font-weight="700">Leczenie przeciw pchłom</text>
    <text x="56" y="380" fill="#8a94a3" font-size="12">Tabletka do żucia (1 miesiąc)</text>
    <text x="444" y="366" fill="#25313f" font-size="14" font-weight="700" text-anchor="end">30,00 zł</text>
  </g>

  <rect x="500" y="104" width="268" height="178" rx="16" fill="#ffffff" stroke="#e2e7f1"/>
  <text x="524" y="140" fill="#0e1b2a" font-size="16" font-weight="800">Podsumowanie</text>
  <text x="524" y="174" fill="#5b6675" font-size="13.5">Suma częściowa</text>
  <text x="744" y="174" fill="#25313f" font-size="13.5" font-weight="700" text-anchor="end">105,00 zł</text>
  <text x="524" y="204" fill="#0e7065" font-size="13.5">Rabat lojalnościowy (10%)</text>
  <text x="744" y="204" fill="#0e7065" font-size="13.5" font-weight="700" text-anchor="end">−10,50 zł</text>
  <line x1="524" y1="226" x2="744" y2="226" stroke="#e2e7f1"/>
  <text x="524" y="262" fill="#0e1b2a" font-size="16" font-weight="800">Razem</text>
  <text x="744" y="264" fill="#0e7065" font-size="25" font-weight="800" text-anchor="end">94,50 zł</text>

  <rect x="500" y="302" width="268" height="216" rx="16" fill="#ffffff" stroke="#e2e7f1"/>
  <text x="524" y="338" fill="#0e1b2a" font-size="16" font-weight="800">Metoda płatności</text>
  <rect x="524" y="356" width="220" height="42" rx="12" fill="#ffffff" stroke="#2fa395"/>
  <circle cx="548" cy="377" r="8" fill="#117a6d"/>
  <text x="572" y="382" fill="#25313f" font-size="13.5" font-weight="700">Karta</text>
  <rect x="524" y="408" width="220" height="42" rx="12" fill="#ffffff" stroke="#e2e7f1"/>
  <circle cx="548" cy="429" r="8" fill="none" stroke="#cdd5e3" stroke-width="2"/>
  <text x="572" y="434" fill="#5b6675" font-size="13.5">Gotówka</text>
  <rect x="524" y="464" width="220" height="44" rx="13" fill="#117a6d"/>
  <text x="634" y="492" fill="#ffffff" font-size="14" font-weight="700" text-anchor="middle">Przetwórz płatność</text>
</svg>
